# xmcd
#
# Track frame offsets:
#	150
#	13157
#	26199
#	44975
#	63472
#	78722
#	96759
#	116381
#	132110
#	148211
#
# Disc length: 2209 seconds
#
# Revision: 1
# Processed by: cddbd v1.5.2PL0 Copyright (c) Steve Scherf et al.
# Submitted via: audiograbber 1.83.01
#
DISCID=94089f0a
DTITLE=Carla Jo Carr - From Our House To Yours
DYEAR=1900
DGENRE=
TTITLE0=Christmas At Our House
TTITLE1=Jesus, What A Wonderful Child
TTITLE2=Born To Die
TTITLE3=Joy To The World
TTITLE4=Jesus, Born On This Day
TTITLE5=Quite Humble Birth
TTITLE6=O Holy Night
TTITLE7=Silent Night
TTITLE8=Mary Did You Know
TTITLE9=From Our House To Yours
EXTD=
EXTT0=
EXTT1=
EXTT2=
EXTT3=
EXTT4=
EXTT5=
EXTT6=
EXTT7=
EXTT8=
EXTT9=
PLAYORDER=
